<svg width="100" height="100" viewBox="0 0 100 100" fill="none" xmlns="http://www.w3.org/2000/svg">
<path d="M50 12C29 12 12 29 12 50C12 71 29 88 50 88C71 88 88 71 88 50C88 29 71 12 50 12ZM52 83.898V81.898C52 80.7964 51.1016 79.898 50 79.898C48.8984 79.898 48 80.7964 48 81.898V83.898C30.801 82.898 17.102 69.097 16.102 52H18.102C19.2036 52 20.102 51.1016 20.102 50C20.102 48.8984 19.2036 48 18.102 48H16.102C17.102 30.801 30.903 17.102 48 16.102V18.102C48 19.2036 48.8984 20.102 50 20.102C51.1016 20.102 52 19.2036 52 18.102V16.102C69.199 17.102 82.898 30.903 83.898 48H81.898C80.7964 48 79.898 48.8984 79.898 50C79.898 51.1016 80.7964 52 81.898 52H83.898C82.898 69.199 69.199 82.898 52 83.898ZM62 62C61.6016 62.3984 61.1016 62.6016 60.6016 62.6016C60.1016 62.6016 59.6016 62.4023 59.2032 62L48.6012 51.398C48.4996 51.2964 48.402 51.1988 48.402 51.0972C48.3004 50.9957 48.3004 50.898 48.2028 50.7964C48.1012 50.6949 48.1012 50.5972 48.1012 50.398V49.9996V25.9996C48.1012 24.898 48.9996 23.9996 50.1012 23.9996C51.2028 23.9996 52.1012 24.898 52.1012 25.9996V49.1986L62.1012 59.1986C62.8004 59.9993 62.8004 61.1986 61.9996 61.9994L62 62Z" fill="black"/>
</svg>
