<svg width="100" height="100" viewBox="0 0 100 100" fill="none" xmlns="http://www.w3.org/2000/svg">
<path d="M91.398 25.93C88.9957 27.9417 86.5933 29.9534 84.191 31.9652C83.6441 32.4261 83.0972 32.8832 82.5504 33.3402C82.4254 33.4496 82.2848 33.5629 82.1598 33.6722C82.1403 33.6918 82.1207 33.7113 82.1012 33.7191C82.5621 33.3988 81.8785 33.805 82.1793 33.6488C82.402 33.5316 82.0934 33.6566 82.0309 33.6879C81.8434 33.7738 82.3434 33.6957 81.9918 33.6879C81.7184 33.6801 81.4528 33.6879 81.1793 33.6879H75.4566H65.6832H53.6442H41.1242H29.9052H21.788C20.6942 33.6879 19.581 33.641 18.4872 33.6879C18.1435 33.7074 18.5263 33.6801 18.6044 33.7269C18.5732 33.7074 18.4013 33.6801 18.3505 33.6683C17.9677 33.5902 18.4872 33.6879 18.4599 33.7269C18.4521 33.7347 18.2646 33.6176 18.2372 33.6019C17.9247 33.4457 18.4716 33.766 18.2841 33.6332C18.2646 33.6254 18.2529 33.6019 18.2372 33.5941C18.1278 33.4691 18.12 33.4691 18.2294 33.6019C18.2607 33.6332 18.2763 33.6722 18.3075 33.6996C18.2685 33.6527 18.2372 33.5902 18.1982 33.5433C18.1591 33.4847 18.0224 33.2308 18.1591 33.4965C18.2841 33.7504 18.1669 33.5043 18.1513 33.4261C18.0536 32.9965 18.12 33.7074 18.1435 33.3285C18.1513 33.0082 18.1435 32.6722 18.1435 32.3519V27.2933C18.1435 24.141 18.1122 20.973 18.1435 17.8206V17.762C18.1239 17.3519 18.0185 18.1331 18.1357 17.7542C18.1435 17.723 18.1943 17.5003 18.2138 17.5003C18.245 17.5003 17.9911 17.8831 18.1747 17.6175C18.1669 17.6253 18.2997 17.4027 18.3114 17.4027C18.3896 17.4222 18.0068 17.7074 18.2528 17.512C18.5341 17.2777 18.1435 17.5706 18.1435 17.5706C18.1357 17.5511 18.331 17.4534 18.3583 17.4339C18.6708 17.2113 18.2489 17.512 18.2411 17.473C18.2411 17.4652 18.5067 17.3949 18.495 17.3949C18.8388 17.2972 18.1435 17.387 18.5028 17.4027H18.7255H20.3075H27.2802H37.7802H50.1162H62.4682H73.0232H80.113H81.7536H82.0075C82.2106 17.4027 82.2223 17.4222 82.0661 17.3949C81.8005 17.348 82.1364 17.4339 82.2028 17.4417C82.4684 17.4886 81.9372 17.2933 82.1716 17.4417C82.2692 17.5003 82.32 17.512 82.113 17.3636C82.1208 17.3636 82.1208 17.3714 82.1325 17.3831C82.2419 17.4613 82.3356 17.5589 82.4372 17.637C85.1247 19.8831 87.8083 22.137 90.4919 24.3831C90.7966 24.6371 91.0974 24.8792 91.3903 25.1331C91.4685 25.2035 91.5388 25.2699 91.6052 25.3363C91.8981 25.5902 91.5075 25.2581 91.5466 25.2386C91.5544 25.2308 91.656 25.4261 91.6716 25.4535C91.8669 25.766 91.5935 25.3441 91.6247 25.3285C91.656 25.3089 91.6638 25.5628 91.695 25.5628C91.656 25.555 91.6872 25.055 91.6755 25.4066V25.6488C91.6833 25.9417 91.5778 25.5316 91.695 25.4925C91.6872 25.4925 91.6247 25.7464 91.6247 25.7269C91.5544 26.0199 91.6052 25.5706 91.6716 25.6019C91.6716 25.6019 91.5856 25.7581 91.5739 25.766C91.4255 25.9691 91.8395 25.5003 91.6442 25.68C91.5544 25.7699 91.4841 25.8519 91.3981 25.93C90.6364 26.6136 90.656 28.0081 91.3981 28.6956C92.2185 29.4456 93.3395 29.4183 94.1637 28.6956C95.7067 27.3284 96.0193 24.8597 94.8278 23.1683C94.4684 22.6605 94.0661 22.3089 93.5973 21.9183C92.2223 20.766 90.8434 19.6136 89.4645 18.4613C88.0973 17.3207 86.7379 16.1761 85.3707 15.0316C84.8317 14.5824 84.316 14.1215 83.6715 13.8519C83.0856 13.6097 82.4918 13.4925 81.8551 13.4808C80.4293 13.473 79.0035 13.4808 77.5778 13.4808H68.5739H56.7189H43.9569H32.1129H23.0191C21.5543 13.4808 20.0816 13.473 18.6129 13.4808C16.191 13.4886 14.2457 15.3089 14.191 17.7581C14.1598 18.7933 14.191 19.8362 14.191 20.8753V32.2423C14.191 32.6017 14.1832 32.9533 14.191 33.3165C14.2301 35.1915 15.3707 36.7931 17.1598 37.4103C17.7926 37.6252 18.4567 37.6134 19.1129 37.6134H24.7691H34.6324H46.8984H59.6014H70.9294H79.0232H81.2576C81.8631 37.6134 82.449 37.6213 83.0467 37.4767C84.4842 37.1174 85.8201 35.6798 86.9334 34.7423L91.6209 30.8165C92.4608 30.1134 93.3006 29.4103 94.1404 28.6993C94.9295 28.0431 94.8748 26.6095 94.1404 25.9337C93.3201 25.1564 92.2342 25.2267 91.3982 25.9298L91.398 25.93Z" fill="black"/>
<path d="M51.7381 9.01559V15.4297C52.3944 14.7734 53.035 14.1328 53.6912 13.4766H46.3084C46.9647 14.1328 47.6053 14.7735 48.2615 15.4297V10.6719C48.2615 10.0938 48.2537 9.51959 48.2615 8.94529C48.2615 8.85935 48.2693 8.76951 48.2693 8.67967C48.2771 8.41404 48.1599 9.05076 48.2615 8.80467C48.3084 8.66795 48.3396 8.5117 48.3787 8.36717C48.4763 7.99608 48.3474 8.49217 48.3201 8.47654C48.3123 8.47654 48.4178 8.28123 48.4373 8.25388C48.4764 8.17576 48.5232 8.10544 48.5623 8.03904C48.5935 7.99217 48.6326 7.92967 48.6717 7.88279C48.7576 7.7656 48.7185 7.81248 48.5545 8.03123C48.5349 8.0117 48.8748 7.6992 48.906 7.67185C49.1209 7.44919 48.8201 7.78904 48.8084 7.74216C48.8084 7.73435 49.031 7.58591 49.0115 7.59372C49.0428 7.57419 49.4412 7.3281 49.4607 7.35153C49.4803 7.38278 48.9803 7.50778 49.3513 7.41013C49.4607 7.37888 49.5545 7.35153 49.6638 7.32419C49.6834 7.31638 49.7029 7.31638 49.7224 7.30466C49.8982 7.27341 49.8865 7.2656 49.7224 7.29685C49.5467 7.31638 49.5467 7.31638 49.7224 7.29685C49.7693 7.29685 49.8084 7.29685 49.8592 7.28903H50.1521C50.6209 7.28122 49.8084 7.17966 50.2498 7.29685C50.3474 7.3281 50.4451 7.35544 50.5428 7.37497C50.8943 7.46091 50.3787 7.26559 50.574 7.37497C50.6717 7.43357 51.1131 7.59763 51.1599 7.71872C51.1599 7.71872 50.8162 7.39841 51.1131 7.69919C51.199 7.78513 51.2771 7.88669 51.3787 7.96481C51.574 8.14059 51.2146 7.69137 51.3474 7.92575C51.406 8.03513 51.4842 8.12887 51.5427 8.24606C51.5818 8.32418 51.6521 8.43356 51.6795 8.5195C51.531 8.03903 51.6717 8.55856 51.6873 8.62888C51.6951 8.67575 51.7654 8.90232 51.7576 8.93357C51.7498 8.86325 51.7381 8.79685 51.7263 8.73045C51.7302 8.79685 51.7381 8.90623 51.7381 9.01561C51.7576 10.039 52.617 11.0156 53.6912 10.9687C54.7264 10.9218 55.6639 10.1093 55.6443 9.01561C55.5857 6.47651 53.8474 4.07421 51.3005 3.52731C48.9372 3.0195 46.6208 3.97653 45.2653 5.95701C44.5231 7.05081 44.3551 8.32031 44.3551 9.59761V12.8476V15.4257C44.3551 16.4804 45.2535 17.3788 46.3082 17.3788H53.691C54.7457 17.3788 55.6441 16.4804 55.6441 15.4257V9.01161C55.6441 7.98821 54.7457 7.01161 53.691 7.05851C52.6363 7.10929 51.7379 7.91789 51.7379 9.01551L51.7381 9.01559Z" fill="black"/>
<path d="M51.738 35.645V44.4653V45.7075L53.6911 43.7544H46.3083L48.2614 45.7075V36.8872V35.645L46.3083 37.5981H53.6911C54.7145 37.5981 55.6911 36.6996 55.6442 35.645C55.5973 34.5903 54.7848 33.6919 53.6911 33.6919H46.3083C45.2536 33.6919 44.3552 34.5903 44.3552 35.645V44.4653V45.7075C44.3552 46.7622 45.2537 47.6606 46.3083 47.6606H53.6911C54.7458 47.6606 55.6442 46.7621 55.6442 45.7075V36.8872V35.645C55.6442 34.6216 54.7458 33.645 53.6911 33.6919C52.6364 33.7427 51.738 34.5513 51.738 35.645V35.645Z" fill="black"/>
<path d="M46.3091 67.871H53.6919L51.7388 65.9179V75.6835V91.1215V94.6645C52.395 94.0082 53.0357 93.3676 53.6919 92.7114H46.3091C46.9653 93.3676 47.606 94.0083 48.2622 94.6645V84.8989V69.4609V65.9179C48.2622 64.8945 47.3638 63.9179 46.3091 63.9648C45.2544 64.0116 44.356 64.8241 44.356 65.9179V75.6835V91.1215V94.6645C44.356 95.7192 45.2544 96.6176 46.3091 96.6176H53.6919C54.7466 96.6176 55.645 95.7191 55.645 94.6645V84.8989V69.4609V65.9179C55.645 64.8632 54.7466 63.9648 53.6919 63.9648H46.3091C45.2857 63.9648 44.3091 64.8632 44.356 65.9179C44.4068 66.9726 45.2154 67.871 46.3091 67.871Z" fill="black"/>
<path d="M29.4921 96.633H37.3124H46.1991H53.6679H61.2148C64.2539 96.633 67.3007 96.6798 70.3359 96.633H70.4999C71.5233 96.633 72.4999 95.7345 72.453 94.6799C72.4062 93.6252 71.5937 92.7268 70.4999 92.7268H62.6796H53.7929H46.3241H38.7772C35.7381 92.7268 32.6913 92.6799 29.6561 92.7268H29.4921C28.4687 92.7268 27.4921 93.6252 27.539 94.6799C27.5859 95.7346 28.3984 96.633 29.4921 96.633V96.633Z" fill="black"/>
<path d="M81.8831 48.016V56.7348V62.1059V63.4653V63.5825V63.6137C81.9026 64.0356 82.0081 63.2426 81.8909 63.6215C81.8713 63.6801 81.8518 63.7465 81.844 63.809C81.7971 64.0512 82.0471 63.516 81.8909 63.6996C81.844 63.7582 81.7932 63.8481 81.7659 63.9145C81.6565 64.1489 81.9807 63.6098 81.8362 63.8168C81.8284 63.8364 81.8049 63.8481 81.7971 63.8637C81.6721 63.9731 81.6721 63.9809 81.8049 63.8715C81.8362 63.8403 81.8752 63.8246 81.9026 63.7934C81.8557 63.8324 81.7932 63.8637 81.7463 63.9028C81.7385 63.9106 81.5823 64.0004 81.5823 63.9887C81.8362 63.891 81.8948 63.8637 81.7463 63.9106C81.6877 63.9301 81.6213 63.9496 81.5588 63.9575C81.2268 64.0668 81.9104 63.9653 81.551 63.9496H81.5198H81.3948H80.8401H78.6604H70.7776H59.7036H47.2116H35.0826H25.1295H19.0553H18.0475H18.028C17.5983 63.9575 18.3014 64.0864 17.9108 63.9301C17.735 63.8598 17.7623 63.7934 17.9303 63.9496C17.7819 63.8246 17.7819 63.8793 17.9225 63.9887C17.8522 63.9418 17.7858 63.8715 17.7194 63.8129C17.2584 63.4301 16.8014 63.0395 16.3444 62.6606C13.7975 60.52 11.2194 58.4028 8.68816 56.2465C8.66863 56.227 8.6491 56.2153 8.62957 56.1996C8.58269 56.1606 8.40691 55.934 8.34832 55.9184C8.37957 55.9496 8.39519 55.9887 8.42644 56.0161C8.5241 56.1411 8.5241 56.1411 8.43426 56.0082C8.41473 55.9692 8.39519 55.9301 8.37566 55.8989C8.40691 55.977 8.43426 56.0551 8.47332 56.1411C8.47332 56.1411 8.40301 55.9379 8.39519 55.9067C8.27019 55.602 8.44207 55.9926 8.39519 56.0629C8.41472 56.0317 8.40301 55.5942 8.39519 55.5746C8.52019 55.7973 8.29754 55.9575 8.39519 55.7309C8.40301 55.6996 8.47332 55.4965 8.47332 55.4965C8.46551 55.4887 8.30926 55.977 8.44207 55.6215C8.55926 55.3168 8.25457 55.7856 8.40301 55.6606C8.69598 55.395 8.98113 55.145 9.28192 54.8871C10.6413 53.7465 12.0085 52.6019 13.3639 51.4574C14.6998 50.3324 16.0397 49.2113 17.3795 48.098C17.5358 47.973 17.6842 47.8324 17.8405 47.7074C17.8717 47.6762 17.8991 47.6605 17.9264 47.6293L17.9342 47.6215C17.6998 47.7973 17.8951 47.6293 17.942 47.6605C17.817 47.602 17.6881 47.7973 18.0006 47.6605C18.1764 47.5824 17.6881 47.6527 18.0475 47.6605H18.0787H18.2155C19.6608 47.6527 21.1061 47.6605 22.5514 47.6605H31.4108H43.0128H55.5328H67.3298H76.4509H81.2478H81.5524H81.572C81.9157 47.641 81.5134 47.6605 81.4548 47.6215C81.486 47.641 81.6579 47.6684 81.7087 47.6801C82.0915 47.7582 81.572 47.6605 81.5993 47.6215C81.5993 47.6137 81.8415 47.7582 81.822 47.7465C82.0954 47.8949 81.6735 47.7152 81.736 47.6684C81.7439 47.6605 81.9118 47.8559 81.9118 47.8441C81.8923 47.8754 81.6579 47.4144 81.8337 47.7582C81.8532 47.7895 81.9704 47.973 81.9587 47.9809C81.9274 48.0004 81.8415 47.5981 81.8806 47.8168C81.9001 47.9027 81.9196 47.9809 81.9509 48.0707C81.9939 48.3402 81.8767 47.5707 81.8845 48.016C81.9157 49.0316 82.7634 50.016 83.8376 49.9691C84.8728 49.9222 85.822 49.1097 85.7907 48.016C85.7204 45.5472 83.7673 43.7504 81.3298 43.7504H79.736H72.6462H61.8842H49.2752H36.7362H26.1892H19.4509H18.0915C17.2438 43.7582 16.3649 43.9653 15.6501 44.4535C15.2282 44.7465 14.8376 45.0981 14.447 45.4301C11.7204 47.7153 8.98608 50.0004 6.26338 52.2856C5.75166 52.7348 5.2751 53.184 4.94308 53.809C4.06417 55.5082 4.3962 57.6879 5.85324 58.9652C6.78293 59.7855 7.75944 60.559 8.70484 61.3558C10.2673 62.6644 11.8298 63.973 13.3845 65.2816C13.8806 65.7035 14.3806 66.1097 14.8767 66.5316C15.8064 67.305 16.7712 67.8285 18.0095 67.8675C19.072 67.8988 20.1384 67.8675 21.2048 67.8675H29.4782H40.8922H53.6652H65.8212H75.5478H80.9853C81.9931 67.8675 82.9853 67.7581 83.8564 67.1722C85.0986 66.3324 85.7783 64.9925 85.79 63.5003V62.1917V50.7467V48.0123C85.79 46.9889 84.8916 46.0123 83.8369 46.0592C82.7822 46.1139 81.8838 46.9225 81.8838 48.0162L81.8831 48.016Z" fill="black"/>
</svg>
